<svg width="111" height="120" viewBox="0 0 111 120" fill="none" xmlns="http://www.w3.org/2000/svg">
<path d="M95.2566 55.3593L95.2565 67.5009L75.2565 102.142L35.2565 102.142L15.2565 67.5009L15.2572 55.3599L95.2566 55.3593Z" fill="#80BC60"/>
<path d="M75.641 20.7188L95.641 55.3598L75.641 90.0008L35.641 90.0008L15.641 55.3598L35.641 20.7187L75.641 20.7188Z" fill="#ACE87E"/>
<path d="M55 71.7188C63.2843 71.7188 70 65.003 70 56.7188C70 48.4345 63.2843 41.7188 55 41.7188C46.7157 41.7188 40 48.4345 40 56.7188C40 65.003 46.7157 71.7188 55 71.7188Z" fill="white" stroke="#ACE87E" stroke-width="3" stroke-linejoin="round"/>
<path d="M55.0063 47.7188L55.0054 56.7253L61.3649 63.0849" stroke="#ACE87E" stroke-width="3" stroke-linecap="round" stroke-linejoin="round"/>
</svg>
