<svg width="111" height="119" viewBox="0 0 111 119" fill="none" xmlns="http://www.w3.org/2000/svg">
<path d="M95.2566 54.871L95.2565 67.0127L75.2565 101.654L35.2565 101.654L15.2565 67.0127L15.2572 54.8716L95.2566 54.871Z" fill="#EF746F"/>
<path d="M75.641 20.2305L95.641 54.8715L75.641 89.5125L35.641 89.5125L15.641 54.8715L35.641 20.2305L75.641 20.2305Z" fill="#FEB0AF"/>
<path d="M44.5 69.2305C43.6716 69.2305 43 68.5589 43 67.7305V40.7305C43 39.902 43.6716 39.2305 44.5 39.2305H65.5C66.3284 39.2305 67 39.902 67 40.7305V67.7305C67 68.5589 66.3284 69.2305 65.5 69.2305H44.5Z" fill="white" stroke="#FEB0AF" stroke-width="3" stroke-linejoin="round"/>
<path fill-rule="evenodd" clip-rule="evenodd" d="M52.75 52.7305V39.2305H61.75V52.7305L57.25 48.0259L52.75 52.7305Z" fill="white" stroke="#FEB0AF" stroke-width="3" stroke-linecap="round" stroke-linejoin="round"/>
<path d="M44.5 39.2305H65.5" stroke="#FEB0AF" stroke-width="3" stroke-linecap="round" stroke-linejoin="round"/>
</svg>
