<svg width="111" height="120" viewBox="0 0 111 120" fill="none" xmlns="http://www.w3.org/2000/svg">
<path d="M95.2566 55.6152L95.2565 67.7568L75.2565 102.398L35.2565 102.398L15.2565 67.7568L15.2572 55.6158L95.2566 55.6152Z" fill="#568FC3"/>
<path d="M75.641 20.9746L95.641 55.6156L75.641 90.2566L35.641 90.2566L15.641 55.6156L35.641 20.9746L75.641 20.9746Z" fill="#92C7F7"/>
<path d="M55 69.9746C63.2843 69.9746 70 63.2589 70 54.9746C70 46.6903 63.2843 39.9746 55 39.9746C46.7157 39.9746 40 46.6903 40 54.9746C40 63.2589 46.7157 69.9746 55 69.9746Z" fill="white" stroke="#92C7F7" stroke-width="3" stroke-linejoin="round"/>
<path d="M60.25 50.4746V51.2246" stroke="#92C7F7" stroke-width="3" stroke-linecap="round" stroke-linejoin="round"/>
<path d="M49.75 50.4746V51.2246" stroke="#92C7F7" stroke-width="3" stroke-linecap="round" stroke-linejoin="round"/>
<path d="M60.25 60.2246C60.25 60.2246 58.75 63.2246 55 63.2246C51.25 63.2246 49.75 60.2246 49.75 60.2246" stroke="#92C7F7" stroke-width="3" stroke-linecap="round" stroke-linejoin="round"/>
</svg>
