<svg width="523" height="620" viewBox="0 0 523 620" fill="none" xmlns="http://www.w3.org/2000/svg">
<g opacity="0.1">
<path d="M94.0636 88.6403L74.3522 122.782L34.9296 122.782L15.2189 88.6409L34.9303 54.4997L74.3529 54.499L94.0636 88.6403Z" stroke="#333333"/>
<path d="M94.0636 156.64L74.3522 190.782L34.9296 190.782L15.2189 156.641L34.9303 122.5L74.3529 122.499L94.0636 156.64Z" stroke="#333333"/>
<path d="M94.0636 224.64L74.3522 258.782L34.9296 258.782L15.2189 224.641L34.9303 190.5L74.3529 190.499L94.0636 224.64Z" stroke="#333333"/>
<path d="M94.0636 292.64L74.3522 326.782L34.9296 326.782L15.2189 292.641L34.9303 258.5L74.3529 258.499L94.0636 292.64Z" stroke="#333333"/>
<path d="M94.0636 360.64L74.3522 394.782L34.9296 394.782L15.2189 360.641L34.9303 326.5L74.3529 326.499L94.0636 360.64Z" stroke="#333333"/>
<path d="M94.0636 428.64L74.3522 462.782L34.9296 462.782L15.2189 428.641L34.9303 394.5L74.3529 394.499L94.0636 428.64Z" stroke="#333333"/>
<path d="M94.0636 496.64L74.3522 530.782L34.9296 530.782L15.2189 496.641L34.9303 462.5L74.3529 462.499L94.0636 496.64Z" stroke="#333333"/>
<path d="M94.0636 564.64L74.3522 598.782L34.9296 598.782L15.2189 564.641L34.9303 530.5L74.3529 530.499L94.0636 564.64Z" stroke="#333333"/>
<path d="M212.064 88.6403L192.352 122.782L152.93 122.782L133.219 88.6409L152.93 54.4997L192.353 54.499L212.064 88.6403Z" stroke="#333333"/>
<path d="M212.064 156.64L192.352 190.782L152.93 190.782L133.219 156.641L152.93 122.5L192.353 122.499L212.064 156.64Z" stroke="#333333"/>
<path d="M212.064 224.64L192.352 258.782L152.93 258.782L133.219 224.641L152.93 190.5L192.353 190.499L212.064 224.64Z" stroke="#333333"/>
<path d="M212.064 292.64L192.352 326.782L152.93 326.782L133.219 292.641L152.93 258.5L192.353 258.499L212.064 292.64Z" stroke="#333333"/>
<path d="M212.064 360.64L192.352 394.782L152.93 394.782L133.219 360.641L152.93 326.5L192.353 326.499L212.064 360.64Z" stroke="#333333"/>
<path d="M212.064 428.64L192.352 462.782L152.93 462.782L133.219 428.641L152.93 394.5L192.353 394.499L212.064 428.64Z" stroke="#333333"/>
<path d="M212.064 496.64L192.352 530.782L152.93 530.782L133.219 496.641L152.93 462.5L192.353 462.499L212.064 496.64Z" stroke="#333333"/>
<path d="M212.064 564.64L192.352 598.782L152.93 598.782L133.219 564.641L152.93 530.5L192.353 530.499L212.064 564.64Z" stroke="#333333"/>
<path d="M330.064 88.6403L310.352 122.782L270.93 122.782L251.219 88.6409L270.93 54.4997L310.353 54.499L330.064 88.6403Z" stroke="#333333"/>
<path d="M330.064 156.64L310.352 190.782L270.93 190.782L251.219 156.641L270.93 122.5L310.353 122.499L330.064 156.64Z" stroke="#333333"/>
<path d="M330.064 224.64L310.352 258.782L270.93 258.782L251.219 224.641L270.93 190.5L310.353 190.499L330.064 224.64Z" stroke="#333333"/>
<path d="M330.064 292.64L310.352 326.782L270.93 326.782L251.219 292.641L270.93 258.5L310.353 258.499L330.064 292.64Z" stroke="#333333"/>
<path d="M330.064 360.64L310.352 394.782L270.93 394.782L251.219 360.641L270.93 326.5L310.353 326.499L330.064 360.64Z" stroke="#333333"/>
<path d="M330.064 428.64L310.352 462.782L270.93 462.782L251.219 428.641L270.93 394.5L310.353 394.499L330.064 428.64Z" stroke="#333333"/>
<path d="M330.064 496.64L310.352 530.782L270.93 530.782L251.219 496.641L270.93 462.5L310.353 462.499L330.064 496.64Z" stroke="#333333"/>
<path d="M330.064 564.64L310.352 598.782L270.93 598.782L251.219 564.641L270.93 530.5L310.353 530.499L330.064 564.64Z" stroke="#333333"/>
<path d="M448.064 88.6403L428.352 122.782L388.93 122.782L369.219 88.6409L388.93 54.4997L428.353 54.499L448.064 88.6403Z" stroke="#333333"/>
<path d="M448.064 156.64L428.352 190.782L388.93 190.782L369.219 156.641L388.93 122.5L428.353 122.499L448.064 156.64Z" stroke="#333333"/>
<path d="M448.064 224.64L428.352 258.782L388.93 258.782L369.219 224.641L388.93 190.5L428.353 190.499L448.064 224.64Z" stroke="#333333"/>
<path d="M448.064 292.64L428.352 326.782L388.93 326.782L369.219 292.641L388.93 258.5L428.353 258.499L448.064 292.64Z" stroke="#333333"/>
<path d="M448.064 360.64L428.352 394.782L388.93 394.782L369.219 360.641L388.93 326.5L428.353 326.499L448.064 360.64Z" stroke="#333333"/>
<path d="M448.064 428.64L428.352 462.782L388.93 462.782L369.219 428.641L388.93 394.5L428.353 394.499L448.064 428.64Z" stroke="#333333"/>
<path d="M448.064 496.64L428.352 530.782L388.93 530.782L369.219 496.641L388.93 462.5L428.353 462.499L448.064 496.64Z" stroke="#333333"/>
<path d="M448.064 564.64L428.352 598.782L388.93 598.782L369.219 564.641L388.93 530.5L428.353 530.499L448.064 564.64Z" stroke="#333333"/>
<path d="M153.064 54.6403L133.352 88.7815L93.9296 88.7822L74.2189 54.6409L93.9303 20.4997L133.353 20.499L153.064 54.6403Z" stroke="#333333"/>
<path d="M153.064 122.64L133.352 156.782L93.9296 156.782L74.2189 122.641L93.9303 88.4997L133.353 88.499L153.064 122.64Z" stroke="#333333"/>
<path d="M153.064 190.64L133.352 224.782L93.9296 224.782L74.2189 190.641L93.9303 156.5L133.353 156.499L153.064 190.64Z" stroke="#333333"/>
<path d="M153.064 258.64L133.352 292.782L93.9296 292.782L74.2189 258.641L93.9303 224.5L133.353 224.499L153.064 258.64Z" stroke="#333333"/>
<path d="M153.064 326.64L133.352 360.782L93.9296 360.782L74.2189 326.641L93.9303 292.5L133.353 292.499L153.064 326.64Z" stroke="#333333"/>
<path d="M153.064 394.64L133.352 428.782L93.9296 428.782L74.2189 394.641L93.9303 360.5L133.353 360.499L153.064 394.64Z" stroke="#333333"/>
<path d="M153.064 462.64L133.352 496.782L93.9296 496.782L74.2189 462.641L93.9303 428.5L133.353 428.499L153.064 462.64Z" stroke="#333333"/>
<path d="M153.064 530.64L133.352 564.782L93.9296 564.782L74.2189 530.641L93.9303 496.5L133.353 496.499L153.064 530.64Z" stroke="#333333"/>
<path d="M271.064 54.6403L251.352 88.7815L211.93 88.7822L192.219 54.6409L211.93 20.4997L251.353 20.499L271.064 54.6403Z" stroke="#333333"/>
<path d="M271.064 122.64L251.352 156.782L211.93 156.782L192.219 122.641L211.93 88.4997L251.353 88.499L271.064 122.64Z" stroke="#333333"/>
<path d="M271.064 190.64L251.352 224.782L211.93 224.782L192.219 190.641L211.93 156.5L251.353 156.499L271.064 190.64Z" stroke="#333333"/>
<path d="M271.064 258.64L251.352 292.782L211.93 292.782L192.219 258.641L211.93 224.5L251.353 224.499L271.064 258.64Z" stroke="#333333"/>
<path d="M271.064 326.64L251.352 360.782L211.93 360.782L192.219 326.641L211.93 292.5L251.353 292.499L271.064 326.64Z" stroke="#333333"/>
<path d="M271.064 394.64L251.352 428.782L211.93 428.782L192.219 394.641L211.93 360.5L251.353 360.499L271.064 394.64Z" stroke="#333333"/>
<path d="M271.064 462.64L251.352 496.782L211.93 496.782L192.219 462.641L211.93 428.5L251.353 428.499L271.064 462.64Z" stroke="#333333"/>
<path d="M271.064 530.64L251.352 564.782L211.93 564.782L192.219 530.641L211.93 496.5L251.353 496.499L271.064 530.64Z" stroke="#333333"/>
<path d="M389.064 54.6403L369.352 88.7815L329.93 88.7822L310.219 54.6409L329.93 20.4997L369.353 20.499L389.064 54.6403Z" stroke="#333333"/>
<path d="M389.064 122.64L369.352 156.782L329.93 156.782L310.219 122.641L329.93 88.4997L369.353 88.499L389.064 122.64Z" stroke="#333333"/>
<path d="M389.064 190.64L369.352 224.782L329.93 224.782L310.219 190.641L329.93 156.5L369.353 156.499L389.064 190.64Z" stroke="#333333"/>
<path d="M389.064 258.64L369.352 292.782L329.93 292.782L310.219 258.641L329.93 224.5L369.353 224.499L389.064 258.64Z" stroke="#333333"/>
<path d="M389.064 326.64L369.352 360.782L329.93 360.782L310.219 326.641L329.93 292.5L369.353 292.499L389.064 326.64Z" stroke="#333333"/>
<path d="M389.064 394.64L369.352 428.782L329.93 428.782L310.219 394.641L329.93 360.5L369.353 360.499L389.064 394.64Z" stroke="#333333"/>
<path d="M389.064 462.64L369.352 496.782L329.93 496.782L310.219 462.641L329.93 428.5L369.353 428.499L389.064 462.64Z" stroke="#333333"/>
<path d="M389.064 530.64L369.352 564.782L329.93 564.782L310.219 530.641L329.93 496.5L369.353 496.499L389.064 530.64Z" stroke="#333333"/>
<path d="M507.064 54.6403L487.352 88.7815L447.93 88.7822L428.219 54.6409L447.93 20.4997L487.353 20.499L507.064 54.6403Z" stroke="#333333"/>
<path d="M507.064 122.64L487.352 156.782L447.93 156.782L428.219 122.641L447.93 88.4997L487.353 88.499L507.064 122.64Z" stroke="#333333"/>
<path d="M507.064 190.64L487.352 224.782L447.93 224.782L428.219 190.641L447.93 156.5L487.353 156.499L507.064 190.64Z" stroke="#333333"/>
<path d="M507.064 258.64L487.352 292.782L447.93 292.782L428.219 258.641L447.93 224.5L487.353 224.499L507.064 258.64Z" stroke="#333333"/>
<path d="M507.064 326.64L487.352 360.782L447.93 360.782L428.219 326.641L447.93 292.5L487.353 292.499L507.064 326.64Z" stroke="#333333"/>
<path d="M507.064 394.64L487.352 428.782L447.93 428.782L428.219 394.641L447.93 360.5L487.353 360.499L507.064 394.64Z" stroke="#333333"/>
<path d="M507.064 462.64L487.352 496.782L447.93 496.782L428.219 462.641L447.93 428.5L487.353 428.499L507.064 462.64Z" stroke="#333333"/>
<path d="M507.064 530.64L487.352 564.782L447.93 564.782L428.219 530.641L447.93 496.5L487.353 496.499L507.064 530.64Z" stroke="#333333"/>
</g>
</svg>
