<svg width="36" height="36" viewBox="0 0 36 36" fill="none" xmlns="http://www.w3.org/2000/svg">
<path d="M18 33C24.176 33 29.2499 28.1056 29.2499 21.8236C29.2499 20.2814 29.1715 18.6281 28.3166 16.0587C27.4618 13.4894 27.2896 13.1577 26.3857 11.5709C25.9995 14.8091 23.9333 16.1586 23.4083 16.5619C23.4083 16.1423 22.1584 11.5019 20.2632 8.72542C18.4027 6 15.8726 4.21194 14.389 3C14.389 5.30233 13.7414 8.72543 12.814 10.4696C11.8867 12.2137 11.7125 12.2772 10.5541 13.5752C9.39585 14.8731 8.86418 15.274 7.89555 16.8488C6.92697 18.4237 6.75 20.5214 6.75 22.0636C6.75 28.3456 11.824 33 18 33Z" fill="#FEEFC9"/>
</svg>
