<svg width="567" height="860" viewBox="0 0 567 860" fill="none" xmlns="http://www.w3.org/2000/svg">
<path d="M97.1981 26.0441L123.242 71.1538L97.1981 116.263L45.1099 116.263L19.0658 71.1538L45.1099 26.0441L97.1981 26.0441Z" fill="#FFD67D"/>
<path d="M97.1985 121.539L123.243 166.649L97.1985 211.759L45.1104 211.759L19.0663 166.649L45.1104 121.539L97.1985 121.539Z" fill="#FFD67D"/>
<path d="M97.1985 217.034L123.243 262.144L97.1985 307.254L45.1104 307.254L19.0663 262.144L45.1104 217.034L97.1985 217.034Z" fill="#FFD67D"/>
<path d="M97.1985 312.529L123.243 357.639L97.1985 402.749L45.1104 402.749L19.0663 357.639L45.1104 312.529L97.1985 312.529Z" fill="#FFD67D"/>
<path d="M97.1985 694.509L123.243 739.619L97.1985 784.728L45.1104 784.728L19.0663 739.619L45.1104 694.509L97.1985 694.509Z" fill="#FFD67D"/>
<path d="M267.352 26.0441L293.396 71.1538L267.352 116.263L215.264 116.263L189.22 71.1538L215.264 26.0441L267.352 26.0441Z" fill="#FFD67D"/>
<path d="M267.352 121.539L293.396 166.649L267.352 211.759L215.264 211.759L189.22 166.649L215.264 121.539L267.352 121.539Z" fill="#FFDF86"/>
<path d="M267.352 217.034L293.396 262.144L267.352 307.254L215.264 307.254L189.22 262.144L215.264 217.034L267.352 217.034Z" fill="#FFEAAF"/>
<path d="M267.352 694.509L293.396 739.619L267.352 784.728L215.264 784.728L189.22 739.619L215.264 694.509L267.352 694.509Z" fill="#FFEAAF"/>
<path d="M437.508 26.0441L463.552 71.1538L437.508 116.263L385.419 116.263L359.375 71.1538L385.419 26.0441L437.508 26.0441Z" fill="#FFD67D"/>
<path d="M437.508 217.034L463.552 262.144L437.508 307.254L385.419 307.254L359.375 262.144L385.419 217.034L437.508 217.034Z" fill="#FFD67D"/>
<path d="M437.508 694.509L463.552 739.619L437.508 784.728L385.419 784.728L359.375 739.619L385.419 694.509L437.508 694.509Z" fill="#FFEAAF"/>
<path d="M181.58 74.0089L207.624 119.119L181.58 164.228L129.492 164.228L103.448 119.119L129.492 74.0089L181.58 74.0089Z" fill="#FFD67D"/>
<path d="M181.58 169.502L207.624 214.612L181.58 259.721L129.492 259.721L103.448 214.612L129.492 169.502L181.58 169.502Z" fill="#FFDF86"/>
<path d="M181.58 265.997L207.624 311.107L181.58 356.217L129.492 356.217L103.448 311.107L129.492 265.997L181.58 265.997Z" fill="#FFDF86"/>
<path d="M181.58 743.473L207.624 788.582L181.58 833.692L129.492 833.692L103.448 788.582L129.492 743.473L181.58 743.473Z" fill="#FFD67D"/>
<path d="M351.736 75.0089L377.78 120.119L351.736 165.228L299.647 165.228L273.603 120.119L299.647 75.0089L351.736 75.0089Z" fill="#FFEAAF"/>
<path d="M351.736 743.473L377.78 788.582L351.736 833.692L299.647 833.692L273.603 788.582L299.647 743.473L351.736 743.473Z" fill="#FFD67D"/>
<path d="M521.89 170.502L547.935 215.612L521.89 260.721L469.802 260.721L443.758 215.612L469.802 170.502L521.89 170.502Z" fill="#FFD67D"/>
<path d="M521.89 647.977L547.935 693.086L521.89 738.196L469.802 738.196L443.758 693.086L469.802 647.977L521.89 647.977Z" fill="#FFDF86"/>
<path d="M521.89 743.473L547.935 788.582L521.89 833.692L469.802 833.692L443.758 788.582L469.802 743.473L521.89 743.473Z" fill="#FFD67D"/>
</svg>
