<svg width="20" height="13" viewBox="0 0 20 13" fill="none" xmlns="http://www.w3.org/2000/svg">
<path fill-rule="evenodd" clip-rule="evenodd" d="M19.7 1.68236C19.7 1.04932 19.2224 0.536133 18.6333 0.536133H17.5667C16.9776 0.536133 16.5 1.04932 16.5 1.68236V11.6163C16.5 12.2494 16.9776 12.7625 17.5667 12.7625H18.6333C19.2224 12.7625 19.7 12.2494 19.7 11.6163V1.68236ZM12.2659 2.98141H13.3326C13.9217 2.98141 14.3992 3.50691 14.3992 4.15515V11.5888C14.3992 12.237 13.9217 12.7625 13.3326 12.7625H12.2659C11.6768 12.7625 11.1992 12.237 11.1992 11.5888V4.15515C11.1992 3.50691 11.6768 2.98141 12.2659 2.98141ZM7.93411 5.63046H6.86745C6.27834 5.63046 5.80078 6.16265 5.80078 6.81914V11.5739C5.80078 12.2303 6.27834 12.7625 6.86745 12.7625H7.93411C8.52322 12.7625 9.00078 12.2303 9.00078 11.5739V6.81914C9.00078 6.16265 8.52322 5.63046 7.93411 5.63046ZM2.63333 8.07576H1.56667C0.977563 8.07576 0.5 8.60034 0.5 9.24745V11.5909C0.5 12.238 0.977563 12.7625 1.56667 12.7625H2.63333C3.22244 12.7625 3.7 12.238 3.7 11.5909V9.24745C3.7 8.60034 3.22244 8.07576 2.63333 8.07576Z" fill="#333333"/>
</svg>
