<svg width="20" height="20" viewBox="0 0 20 20" fill="none" xmlns="http://www.w3.org/2000/svg">
<path fill-rule="evenodd" clip-rule="evenodd" d="M2.5 15.8333C2.5 16.7538 3.24619 17.5 4.16667 17.5H15.8333C16.7538 17.5 17.5 16.7538 17.5 15.8333V4.16667C17.5 3.24619 16.7538 2.5 15.8333 2.5H13.3333V2.5C12.8285 2.5 12.3901 2.81463 12.117 3.23922C11.5875 4.06246 10.8818 4.47408 10 4.47408C9.1182 4.47408 8.41254 4.06246 7.88303 3.23922C7.60993 2.81463 7.17149 2.5 6.66667 2.5V2.5H4.16667C3.24619 2.5 2.5 3.24619 2.5 4.16667V15.8333Z" fill="white"/>
<path d="M6.25 10L8.75 12.5L13.75 7.5" stroke="#FBD051" stroke-width="1.66667" stroke-linecap="round" stroke-linejoin="round"/>
</svg>
