<?xml version="1.0" standalone="no"?><!DOCTYPE svg PUBLIC "-//W3C//DTD SVG 1.1//EN" "http://www.w3.org/Graphics/SVG/1.1/DTD/svg11.dtd"><svg t="1757905261962" class="icon" viewBox="0 0 1024 1024" version="1.1" xmlns="http://www.w3.org/2000/svg" p-id="5138" xmlns:xlink="http://www.w3.org/1999/xlink" width="200" height="200"><path d="M619.52 389.12a23.552 23.552 0 0 1-23.296-24.2176c0-66.56-52.5824-120.5248-116.7872-120.5248a23.552 23.552 0 0 1-23.296-24.2176c0-13.5168 10.752-24.2176 23.296-24.2176 64.2048 0 116.7872-53.9648 116.7872-120.5248 0-13.5168 10.752-24.2176 23.296-24.2176a23.552 23.552 0 0 1 23.296 24.2176c0 66.56 52.5824 120.5248 116.7872 120.5248a23.552 23.552 0 0 1 23.296 24.2176c0 13.5168-10.752 24.2176-23.296 24.2176-64.2048 0-116.7872 53.9648-116.7872 120.5248a23.552 23.552 0 0 1-23.296 24.2176z m-55.808-168.448c23.2448 14.336 42.2912 34.4064 55.808 57.6512a167.1168 167.1168 0 0 1 56.32-57.7024 171.264 171.264 0 0 1-56.32-57.7024 165.8368 165.8368 0 0 1-55.808 57.7024z m-411.4944 313.1904a23.552 23.552 0 0 1-23.296-24.1664c0-13.056-10.24-23.7568-23.2448-24.2176a23.552 23.552 0 0 1-23.296-24.2176c0-13.5168 10.752-24.2176 23.296-24.2176a23.552 23.552 0 0 0 23.2448-24.1664c0-13.5168 10.752-24.2176 23.296-24.2176a23.552 23.552 0 0 1 23.2448 24.2176c0 13.4656 10.24 24.1664 23.296 24.1664a23.552 23.552 0 0 1 23.2448 24.2176c0 13.5168-10.7008 24.2176-23.2448 24.2176a23.552 23.552 0 0 0-23.296 24.2176 23.552 23.552 0 0 1-23.2448 24.1664z m778.24 286.2592L435.6608 310.016a68.5568 68.5568 0 0 0-97.28-1.8944l-1.8432 1.8944-27.4944 28.3648a74.1888 74.1888 0 0 0 0 102.4l494.7968 510.1568c26.112 27.4432 69.8368 28.3648 97.28 1.8432l1.8432-1.8432 27.4944-28.416c13.0048-13.4656 20.48-31.6416 20.48-51.2s-7.4752-37.6832-20.48-51.2zM364.4416 352.8192a22.8864 22.8864 0 0 1 32.6144-0.512l0.4608 0.512 67.0208 69.3248-47.9744 45.6192-67.0208-69.7856a24.1664 24.1664 0 0 1 0-33.9968l14.8992-11.1616z m509.696 555.264a22.3744 22.3744 0 0 1-32.1536 0.512l-0.4608-0.512-394.7008-406.784 48.4352-45.6192 394.7008 406.784a24.1664 24.1664 0 0 1 0 33.9968l-15.872 11.6224zM245.76 292.7616a23.552 23.552 0 0 1-23.296-24.2176c0-39.9872-31.6416-72.1408-70.2464-72.1408a23.552 23.552 0 0 1-23.296-24.1664c0-13.5168 10.752-24.2176 23.296-24.2176 38.6048 0 70.2464-32.5632 70.2464-72.192 0-13.4656 10.752-24.1664 23.296-24.1664a23.552 23.552 0 0 1 23.296 24.2176c0 40.0384 31.6416 72.1408 70.2464 72.1408a23.552 23.552 0 0 1 23.296 24.2176c0 13.4656-10.752 24.1664-23.296 24.1664-38.6048 0-70.2464 32.6144-70.2464 72.192 0 13.4656-10.752 24.1664-23.296 24.1664z m-23.7568-120.064c8.8576 6.9632 16.7936 14.848 23.296 24.1664 6.5024-9.2672 14.4384-17.2032 23.2448-24.1664a114.8416 114.8416 0 0 1-23.2448-24.2176 127.1808 127.1808 0 0 1-23.296 24.2176zM245.76 774.9632a23.552 23.552 0 0 1-23.296-24.1664c0-40.0384-31.6416-72.192-70.2464-72.192a23.552 23.552 0 0 1-23.296-24.1664c0-13.5168 10.752-24.2176 23.296-24.2176 38.6048 0 70.2464-32.5632 70.2464-72.1408 0-13.5168 10.752-24.2176 23.296-24.2176a23.552 23.552 0 0 1 23.296 24.2176c0 40.0384 31.6416 72.192 70.2464 72.192a23.552 23.552 0 0 1 23.296 24.1664c0 13.4656-10.752 24.2176-23.296 24.2176-38.6048 0-70.2464 32.5632-70.2464 72.1408 0 13.0048-10.752 24.1664-23.296 24.1664z m-23.7568-120.5248c8.8576 6.9632 16.7936 14.848 23.296 24.2176 6.5024-9.3184 14.4384-17.2544 23.2448-24.2176a114.8416 114.8416 0 0 1-23.2448-24.2176 127.1808 127.1808 0 0 1-23.296 24.2176z" p-id="5139" fill="#333333"></path></svg>