<svg width="24" height="24" viewBox="0 0 24 24" fill="none" xmlns="http://www.w3.org/2000/svg">
<path d="M8.5 6L2 3V18L8.5 21L15.5 18L22 21V6L15.5 3L8.5 6Z" stroke="#333333" stroke-width="2" stroke-linecap="round" stroke-linejoin="round"/>
<path d="M5.25 4.5L8.5 6L15.5 3L18.75 4.5" stroke="#333333" stroke-width="2" stroke-linecap="round" stroke-linejoin="round"/>
<path d="M5.25 19.5L8.5 21L15.5 18L18.75 19.5" stroke="#333333" stroke-width="2" stroke-linecap="round" stroke-linejoin="round"/>
<path d="M14.1061 3.59739L9.10608 5.74025C8.7384 5.89783 8.5 6.25937 8.5 6.6594V19.4835C8.5 20.2014 9.23405 20.6854 9.89392 20.4026L14.8939 18.2597C15.2616 18.1022 15.5 17.7406 15.5 17.3406V4.51654C15.5 3.79862 14.7659 3.31459 14.1061 3.59739Z" stroke="#333333" stroke-width="2"/>
</svg>
