<?xml version="1.0" standalone="no"?><!DOCTYPE svg PUBLIC "-//W3C//DTD SVG 1.1//EN" "http://www.w3.org/Graphics/SVG/1.1/DTD/svg11.dtd"><svg t="1757990388285" class="icon" viewBox="0 0 1024 1024" version="1.1" xmlns="http://www.w3.org/2000/svg" p-id="21605" xmlns:xlink="http://www.w3.org/1999/xlink" width="200" height="200"><path d="M755.898182 323.490909c0-134.981818-109.847273-244.829091-244.829091-244.829091S266.24 188.509091 266.24 323.490909c0 86.109091 45.149091 161.978182 112.64 205.730909-149.410909 54.458182-256.930909 197.352727-256.930909 365.847273 0 17.221818 13.963636 31.185455 31.650909 31.185454s31.185455-13.963636 31.185455-31.185454c0-180.130909 146.618182-326.283636 326.74909-326.283636 134.981818 0 244.829091-109.847273 244.829091-244.829091z m-427.287273 0c0-100.538182 81.92-181.992727 181.992727-181.992727s181.992727 81.92 181.992728 181.992727-81.92 181.992727-181.992728 181.992727S328.610909 423.563636 328.610909 323.490909z" fill="#707070" p-id="21606"></path><path d="M696.785455 592.989091c12.101818-12.101818 12.101818-32.116364 0-44.218182s-32.116364-12.101818-44.218182 0l-130.792728 130.792727c-8.843636 8.843636-11.636364 22.341818-6.981818 34.443637 4.654545 11.636364 16.290909 19.549091 28.858182 19.549091h327.214546c17.221818 0 31.650909-13.963636 31.650909-31.185455s-13.963636-31.185455-31.650909-31.185454h-251.345455l76.8-76.8zM870.865455 752.174545h-327.214546c-17.221818 0-31.185455 13.963636-31.185454 31.185455s13.963636 31.650909 31.185454 31.650909h251.345455l-76.8 76.8a31.464727 31.464727 0 0 0 44.683636 44.218182l130.792727-130.792727c8.843636-8.843636 11.636364-22.341818 6.981818-34.443637a31.418182 31.418182 0 0 0-28.858181-19.549091z" fill="#707070" p-id="21607"></path></svg>